<svg width="8" height="8" viewBox="0 0 8 8" fill="none" xmlns="http://www.w3.org/2000/svg">
<path d="M4.84865 4.00013L7.41273 1.43605L7.9415 0.907278C8.0195 0.829276 8.0195 0.702522 7.9415 0.62452L7.37573 0.0587519C7.29773 -0.0192505 7.17097 -0.0192505 7.09297 0.0587519L4.00013 3.1516L0.907278 0.0585018C0.829276 -0.0195006 0.702522 -0.0195006 0.62452 0.0585018L0.0585018 0.62427C-0.0195006 0.702272 -0.0195006 0.829026 0.0585018 0.907028L3.1516 4.00013L0.0585018 7.09297C-0.0195006 7.17097 -0.0195006 7.29773 0.0585018 7.37573L0.62427 7.9415C0.702272 8.0195 0.829026 8.0195 0.907028 7.9415L4.00013 4.84865L6.56421 7.41273L7.09297 7.9415C7.17097 8.0195 7.29773 8.0195 7.37573 7.9415L7.9415 7.37573C8.0195 7.29773 8.0195 7.17097 7.9415 7.09297L4.84865 4.00013Z" fill="#666666"/>
</svg>
